<svg xmlns="http://www.w3.org/2000/svg" version="1.1" xmlns:xlink="http://www.w3.org/1999/xlink" xmlns:svgjs="http://svgjs.dev/svgjs" width="128" height="128" viewBox="0 0 128 128"><g transform="matrix(0.8046875,0,0,0.8046875,12.295890484161575,14.742033475669885)"><svg viewBox="0 0 96 92" data-background-color="#fafafa" preserveAspectRatio="xMidYMid meet" height="122" width="128" xmlns="http://www.w3.org/2000/svg" xmlns:xlink="http://www.w3.org/1999/xlink"><g id="tight-bounds" transform="matrix(1,0,0,1,0.2594082844587007,0.1612138938812251)"><svg viewBox="0 0 95.481 91.67650139915273" height="91.67650139915273" width="95.481"><g><svg viewBox="0 0 95.481 91.67650139915273" height="91.67650139915273" width="95.481"><g><svg viewBox="0 0 95.481 91.67650139915273" height="91.67650139915273" width="95.481"><g id="textblocktransform"><svg viewBox="0 0 95.481 91.67650139915273" height="91.67650139915273" width="95.481" id="textblock"><g><svg viewBox="0 0 95.481 91.67650139915273" height="91.67650139915273" width="95.481"><g><svg viewBox="0 0 95.481 91.67650139915273" height="91.67650139915273" width="95.481"><g><svg xmlns="http://www.w3.org/2000/svg" xmlns:xlink="http://www.w3.org/1999/xlink" version="1.1" x="0" y="0" viewBox="5.004690446309844 4.789470164055502 89.99857799265962 86.4125298359445" enable-background="new 0 0 100 100" xml:space="preserve" height="91.67650139915273" width="95.481" class="icon-icon-0" data-fill-palette-color="accent" id="icon-0"><path d="M74.198 77.702A2.7 2.7 0 0 1 71.954 73.504C72.755 72.303 72.744 68.596 72.428 66.383A3 3 0 0 1 72.401 66.001C72.401 62.478 77.589 58.06 80.682 55.74A2.7 2.7 0 0 1 82.777 55.243C84.108 55.472 87.343 55.611 88.811 54.56 89.231 54.258 89.448 53.892 89.535 53.336 89.639 52.673 89.678 51.789 89.273 51.35 88.736 50.767 87.404 50.66 87.001 50.693A2.7 2.7 0 0 1 85.049 45.947C85.071 45.53 84.801 44.595 84.106 44.051 83.363 43.469 82.314 43.576 80.991 44.369 78.701 45.743 80.055 48.623 80.217 48.946A2.7 2.7 0 0 1 79.779 51.993C78.443 53.431 71.504 60.6 66.101 60.6 53.945 60.6 47.277 64.945 46.281 73.513A2.7 2.7 0 0 1 40.916 72.889C41.685 66.283 45.977 55.2 66.101 55.2 67.905 55.2 71.696 52.417 74.682 49.487 73.876 46.54 73.987 42.274 78.213 39.738 83.073 36.822 87.238 38.658 89.207 41.768 90.044 43.092 90.453 44.529 90.454 45.869 91.42 46.223 92.414 46.791 93.244 47.69 94.274 48.807 95.392 50.838 94.871 54.171 94.56 56.159 93.547 57.816 91.941 58.96 89.118 60.973 85.109 60.917 83.069 60.721 80.574 62.712 78.267 65.05 77.832 66.057 78.06 67.93 78.506 73.412 76.448 76.499A2.7 2.7 0 0 1 74.198 77.702" fill="#166d9d" data-fill-palette-color="accent"></path><path d="M84.204 81.304A2.7 2.7 0 0 1 81.617 77.827C83.739 70.754 77.407 65.64 77.136 65.427A2.705 2.705 0 0 1 76.683 61.639 2.695 2.695 0 0 1 80.46 61.171C80.851 61.475 89.984 68.729 86.789 79.38A2.7 2.7 0 0 1 84.204 81.304" fill="#166d9d" data-fill-palette-color="accent"></path><path d="M13.094 81.303A2.7 2.7 0 0 1 10.425 78.984C9.278 70.954 18.779 58.054 42.592 47.338 62.383 38.43 72.797 52.587 72.9 52.731A2.702 2.702 0 0 1 68.513 55.883C68.177 55.423 60.444 45.226 44.808 52.263 22.393 62.35 15.102 73.538 15.771 78.221A2.7 2.7 0 0 1 13.094 81.303" fill="#166d9d" data-fill-palette-color="accent"></path><path d="M94.798 80.269A2.7 2.7 0 0 0 92.303 78.603H7.697A2.7 2.7 0 0 0 5.215 80.258 2.71 2.71 0 0 0 5.774 83.196C5.815 83.239 6.835 84.295 11.948 90.259A2.7 2.7 0 0 0 13.998 91.202H86.003C86.792 91.202 87.541 90.857 88.053 90.259 93.166 84.294 94.186 83.238 94.212 83.211A2.7 2.7 0 0 0 94.798 80.269" fill="#166d9d" data-fill-palette-color="accent"></path><path d="M38.921 42.6A2.698 2.698 0 0 1 37.012 37.991C37.893 37.109 39.682 32.959 36.454 25.696 32.6 17.026 38.605 11.184 38.862 10.94A2.7 2.7 0 0 1 42.596 14.841C42.221 15.213 39.156 18.48 41.388 23.502 45.7 33.203 43.066 39.574 40.83 41.81A2.7 2.7 0 0 1 38.921 42.6" fill="#166d9d" data-fill-palette-color="accent"></path><path d="M53.459 37.199A2.698 2.698 0 0 1 51.55 32.59C52.431 31.708 54.22 27.558 50.992 20.295 47.138 11.625 53.143 5.783 53.401 5.539A2.7 2.7 0 0 1 57.135 9.44C56.76 9.812 53.695 13.079 55.927 18.101 60.239 27.802 57.605 34.173 55.369 36.409A2.7 2.7 0 0 1 53.459 37.199" fill="#166d9d" data-fill-palette-color="accent"></path><path d="M67.723 41.699A2.698 2.698 0 0 1 65.814 37.09C66.695 36.209 68.484 32.059 65.256 24.795 61.402 16.125 67.407 10.283 67.664 10.039A2.7 2.7 0 0 1 71.398 13.941C71.023 14.312 67.957 17.58 70.19 22.602 74.501 32.302 71.868 38.673 69.632 40.909A2.7 2.7 0 0 1 67.723 41.699" fill="#166d9d" data-fill-palette-color="accent"></path></svg></g></svg></g></svg></g></svg></g></svg></g></svg></g><defs></defs></svg><rect width="95.481" height="91.67650139915273" fill="none" stroke="none" visibility="hidden"></rect></g></svg></g></svg>